Coordinates
version=1
nRows=29
nColumns=22
inDegrees=yes

Units are S.I. units (second, meters, Newtons, ...)
If the header above contains a line with 'inDegrees', this indicates whether rotational values are in degrees (yes) or radians (no).

endheader
time	pelvis_tilt	pelvis_list	pelvis_rotation	pelvis_tx	pelvis_ty	pelvis_tz	hip_flexion_r	hip_adduction_r	hip_rotation_r	knee_angle_r	ankle_angle_r	subtalar_angle_r	hip_flexion_l	hip_adduction_l	hip_rotation_l	knee_angle_l	ankle_angle_l	subtalar_angle_l	lumbar_extension	lumbar_bending	lumbar_rotation
      1.29000000	     -6.37255344	     -7.27972960	     -1.27116989	     -1.07970283	      0.97425185	      0.05614004	      7.82070176	      8.11853582	     -4.18444492	    -14.01542319	     10.15668123	      1.23960690	      5.81914387	     -6.21777152	      6.05033112	     -9.79910535	     12.61933725	     -3.04908269	      3.59362833	      6.26250965	     -8.44517917
      1.30000000	     -6.40000708	     -7.28936034	     -1.21364281	     -1.07951995	      0.97418452	      0.05525863	      7.83484417	      8.07039118	     -4.21462870	    -14.00608628	     10.15316987	      1.28575760	      5.88520947	     -6.16682678	      6.13393434	     -9.86568300	     12.66123818	     -3.09058078	      3.56339035	      6.26014917	     -8.43107982
      1.31000000	     -6.42453846	     -7.30392388	     -1.14420530	     -1.07931536	      0.97411199	      0.05432573	      7.85047237	      8.02113395	     -4.27958292	    -14.00702190	     10.16399367	      1.33134537	      5.95927715	     -6.11516349	      6.24730857	     -9.95218525	     12.69837185	     -3.13553535	      3.53248905	      6.26513968	     -8.42911229
      1.32000000	     -6.47115353	     -7.33320789	     -1.06339671	     -1.07909861	      0.97400557	      0.05337052	      7.89231377	      7.98344594	     -4.38064456	    -14.01243480	     10.19083315	      1.40879908	      6.06270116	     -6.07706167	      6.38176723	    -10.04475260	     12.71266319	     -3.21176562	      3.52875900	      6.28315643	     -8.43026297
      1.33000000	     -6.47884541	     -7.34922046	     -1.00798068	     -1.07884749	      0.97394400	      0.05242047	      7.89152736	      7.93590851	     -4.41885117	    -14.02254526	     10.20065448	      1.43671469	      6.11798966	     -6.02507074	      6.48128444	    -10.14070507	     12.77063592	     -3.24905673	      3.47640467	      6.28863086	     -8.40171795
      1.34000000	     -6.48737458	     -7.37343934	     -0.93428491	     -1.07857106	      0.97387124	      0.05144027	      7.90164682	      7.89232467	     -4.49517155	    -14.05162829	     10.22930397	      1.47187317	      6.17791297	     -5.97844469	      6.61099338	    -10.24114907	     12.81955946	     -3.29519913	      3.42803886	      6.29845611	     -8.38249596
      1.35000000	     -6.49577249	     -7.39693072	     -0.86352577	     -1.07827253	      0.97379317	      0.05045255	      7.92062291	      7.84693279	     -4.56759328	    -14.09839764	     10.26480910	      1.50933025	      6.23077886	     -5.93161661	      6.73976412	    -10.33231022	     12.86569845	     -3.34441970	      3.37872658	      6.30593334	     -8.35602181
      1.36000000	     -6.49883031	     -7.41676613	     -0.79842680	     -1.07793683	      0.97371239	      0.04945711	      7.94704190	      7.79664696	     -4.63456608	    -14.17278628	     10.31049712	      1.54485612	      6.27037163	     -5.88093852	      6.86638729	    -10.41742922	     12.91193895	     -3.39289483	      3.32547550	      6.30861583	     -8.31991347
      1.37000000	     -6.49680927	     -7.43145104	     -0.73245975	     -1.07756701	      0.97362588	      0.04845073	      7.98641243	      7.73915107	     -4.70005037	    -14.28263096	     10.36841724	      1.57887883	      6.29798077	     -5.82474217	      6.99461935	    -10.49527068	     12.95894113	     -3.44187001	      3.27011509	      6.30237451	     -8.28004541
      1.38000000	     -6.51526024	     -7.43566210	     -0.65208794	     -1.07720893	      0.97350368	      0.04740789	      8.07389794	      7.66522230	     -4.77625727	    -14.43480210	     10.43917188	      1.66597088	      6.35207096	     -5.75368736	      7.15306499	    -10.57560275	     12.97355618	     -3.54234356	      3.23607379	      6.28213821	     -8.25966003
      1.39000000	     -6.48803258	     -7.44547896	     -0.59394825	     -1.07674646	      0.97341719	      0.04640767	      8.12987834	      7.60215730	     -4.82067917	    -14.63026874	     10.51871725	      1.67675836	      6.32930158	     -5.69697969	      7.26052282	    -10.62756782	     13.04860729	     -3.57252713	      3.15841575	      6.26451301	     -8.20368772
      1.40000000	     -6.45930482	     -7.43551013	     -0.51836783	     -1.07625157	      0.97331747	      0.04536164	      8.21509565	      7.51041022	     -4.88978810	    -14.88183089	     10.62476488	      1.69848411	      6.29778426	     -5.61605767	      7.39111492	    -10.66528433	     13.10418918	     -3.61085344	      3.08306295	      6.22198682	     -8.16408081
      1.41000000	     -6.43495283	     -7.39713216	     -0.42252307	     -1.07572788	      0.97319851	      0.04426383	      8.33917700	      7.38109891	     -4.96194359	    -15.19611516	     10.75880778	      1.76903165	      6.26770450	     -5.50096227	      7.53420309	    -10.69473119	     13.11837786	     -3.68160605	      3.01761875	      6.14617375	     -8.17322311
      1.42000000	     -6.38879855	     -7.36642467	     -0.33394910	     -1.07511739	      0.97308238	      0.04317788	      8.46836148	      7.25862634	     -5.03044752	    -15.56927551	     10.90392234	      1.83219797	      6.19062980	     -5.39920999	      7.65671158	    -10.69571829	     13.16953231	     -3.74115135	      2.93714706	      6.07627405	     -8.15063641
      1.43000000	     -6.33425218	     -7.31363084	     -0.23480307	     -1.07446142	      0.97295575	      0.04206230	      8.62887901	      7.10692780	     -5.09875210	    -16.01836008	     11.06634181	      1.93160198	      6.09042256	     -5.27254031	      7.79162858	    -10.67540720	     13.20118230	     -3.81312668	      2.85147955	      5.97864930	     -8.12376817
      1.44000000	     -6.27390925	     -7.24156597	     -0.13526523	     -1.07373683	      0.97280727	      0.04093676	      8.82789235	      6.92930748	     -5.16109670	    -16.55300192	     11.25046534	      2.06993841	      5.96466473	     -5.12760375	      7.91456258	    -10.63047391	     13.22632130	     -3.89862932	      2.76908516	      5.85857622	     -8.10744175
      1.45000000	     -6.18735277	     -7.15178230	     -0.02706055	     -1.07294537	      0.97264534	      0.03979851	      9.04860491	      6.72966549	     -5.22828775	    -17.18268371	     11.47139212	      2.13178845	      5.79687322	     -4.96602470	      7.99759401	    -10.56492618	     13.28329751	     -3.94615645	      2.66185814	      5.71765515	     -8.11277516
      1.46000000	     -6.14064873	     -7.02866025	      0.07363889	     -1.07215288	      0.97240151	      0.03864195	      9.37988614	      6.48509396	     -5.28003308	    -17.93337324	     11.69967067	      2.36909221	      5.65612046	     -4.76703907	      8.10599647	    -10.47641996	     13.29628738	     -4.06627376	      2.60016648	      5.54108647	     -8.09728981
      1.47000000	     -6.06011384	     -6.87621566	      0.18404643	     -1.07130039	      0.97214533	      0.03747551	      9.72925376	      6.20614924	     -5.33430988	    -18.78475490	     11.94566688	      2.50035780	      5.47149179	     -4.53750256	      8.19605814	    -10.38017591	     13.32692614	     -4.13427712	      2.50333504	      5.33027878	     -8.09101281
      1.48000000	     -5.94789882	     -6.69443616	      0.30343427	     -1.07039429	      0.97187319	      0.03629006	     10.09954129	      5.89028013	     -5.39356526	    -19.73748880	     12.20853501	      2.55461230	      5.25018624	     -4.27636496	      8.26947209	    -10.28536468	     13.38148312	     -4.17338576	      2.37141995	      5.08813296	     -8.10202437
      1.49000000	     -5.89811896	     -6.48378425	      0.40355592	     -1.06952337	      0.97149140	      0.03512820	     10.61963970	      5.53752745	     -5.43270065	    -20.83187190	     12.44444278	      2.76094063	      5.09015562	     -3.98414195	      8.36649751	    -10.18487978	     13.37807659	     -4.26253547	      2.30335614	      4.81363292	     -8.07465605
      1.50000000	     -5.78232229	     -6.24800321	      0.52044558	     -1.06853848	      0.97112687	      0.03394937	     11.11153975	      5.15201897	     -5.49506158	    -22.01093050	     12.70261572	      2.86741899	      4.85418689	     -3.66660046	      8.41620483	    -10.08461263	     13.45553457	     -4.32170376	      2.16745901	      4.51353686	     -8.10705297
      1.51000000	     -5.76190918	     -6.00206342	      0.61257934	     -1.06760225	      0.97061226	      0.03280438	     11.79182725	      4.74662933	     -5.53953747	    -23.33497414	     12.92444482	      3.23052867	      4.72725102	     -3.33695528	      8.47706308	     -9.99980063	     13.49209372	     -4.46237116	      2.13158850	      4.20541375	     -8.10543703
      1.52000000	     -5.63620127	     -5.72983178	      0.71147463	     -1.06651653	      0.97020635	      0.03168017	     12.39130747	      4.31303559	     -5.60480529	    -24.72583872	     13.13026713	      3.36573680	      4.45768939	     -2.98689145	      8.52584759	     -9.87932887	     13.50578322	     -4.51178891	      1.98174681	      3.86739361	     -8.10882162
      1.53000000	     -5.48378995	     -5.44639712	      0.81074569	     -1.06533901	      0.96980559	      0.03058335	     13.00457507	      3.86465595	     -5.66895646	    -26.19534022	     13.27846392	      3.48271808	      4.16408464	     -2.62647122	      8.54898609	     -9.78135893	     13.61063330	     -4.56552706	      1.80426298	      3.51979910	     -8.14558964
      1.54000000	     -5.43772440	     -5.18155615	      0.87186518	     -1.06414359	      0.96927932	      0.02957610	     13.80142754	      3.43214168	     -5.71249812	    -27.78231941	     13.39402975	      3.84096904	      3.96917105	     -2.29130694	      8.57106005	     -9.66518510	     13.62876620	     -4.67869413	      1.74760156	      3.19467026	     -8.13974841
      1.55000000	     -5.23179098	     -4.92043075	      0.95973316	     -1.06273360	      0.96896239	      0.02857929	     14.42763941	      3.00364004	     -5.79009248	    -29.37733786	     13.41227819	      3.93453808	      3.58396644	     -1.96606721	      8.59259374	     -9.53745468	     13.72918163	     -4.71452728	      1.51943803	      2.87843912	     -8.18260174
      1.56000000	     -5.10800460	     -4.68043714	      1.00880105	     -1.06124130	      0.96856791	      0.02768780	     15.19179040	      2.59763271	     -5.85045808	    -31.05251296	     13.42134320	      4.14388588	      3.25538501	     -1.67228222	      8.59211671	     -9.36608290	     13.74215305	     -4.78100277	      1.39150988	      2.58697963	     -8.19523144
      1.57000000	     -4.96339428	     -4.47789951	      1.06744851	     -1.05967015	      0.96823167	      0.02683844	     15.94802456	      2.23712284	     -5.89689932	    -32.72822244	     13.31162841	      4.39599237	      2.91629592	     -1.41875797	      8.61848964	     -9.22710672	     13.82281718	     -4.87752453	      1.24199019	      2.34114115	     -8.23178292
